<?xml version="1.0" encoding="iso-8859-1"?>
<!-- Uploaded to: SVG Repo, www.svgrepo.com, Generator: SVG Repo Mixer Tools -->
<svg height="800px" width="800px" version="1.1" id="Layer_1" xmlns="http://www.w3.org/2000/svg" xmlns:xlink="http://www.w3.org/1999/xlink" 
	 viewBox="0 0 511.072 511.072" xml:space="preserve">
<path style="fill:#F2B851;" d="M0,100.344V354.28h317.44V100.344H0z"/>
<path d="M238.144,321.16c-24.976,0-45.248,20.064-45.248,44.784s20.272,44.784,45.248,44.784c24.976,0,45.248-20.064,45.248-44.784
	C283.392,341.224,263.12,321.16,238.144,321.16L238.144,321.16z"/>
<path d="M79.296,321.16c-24.976,0-45.248,20.064-45.248,44.784s20.272,44.784,45.248,44.784s45.248-20.064,45.248-44.784
	S104.272,321.16,79.296,321.16L79.296,321.16z"/>
<path d="M511.072,354.44V250.856l-68.096-90.384h-77.008V354.28L511.072,354.44z"/>
<path d="M438.512,321.16c-24.976,0-45.248,20.064-45.248,44.784s20.272,44.784,45.248,44.784s45.248-20.064,45.248-44.784
	S463.504,321.16,438.512,321.16L438.512,321.16z"/>
</svg>